<mxfile host="app.diagrams.net" modified="2024-05-30T05:42:33.200Z" agent="Mozilla/5.0 (Windows NT 10.0; Win64; x64; rv:126.0) Gecko/20100101 Firefox/126.0" etag="RFdqlaGBtXZ5itb94uaX" version="24.4.10" type="device">
  <diagram name="Page-1" id="LtEUhCCWdH60Wfs2XR3g">
    <mxGraphModel dx="1095" dy="2477" grid="0" gridSize="10" guides="1" tooltips="1" connect="1" arrows="1" fold="1" page="0" pageScale="1" pageWidth="850" pageHeight="1100" math="0" shadow="0">
      <root>
        <mxCell id="0" />
        <mxCell id="1" parent="0" />
        <mxCell id="u4X41kb7TN3iQtdw-ZZZ-28" style="edgeStyle=none;curved=1;rounded=0;orthogonalLoop=1;jettySize=auto;html=1;fontSize=12;startSize=8;endSize=8;" edge="1" parent="1" source="u4X41kb7TN3iQtdw-ZZZ-1" target="u4X41kb7TN3iQtdw-ZZZ-19">
          <mxGeometry relative="1" as="geometry">
            <Array as="points">
              <mxPoint x="420" y="117" />
            </Array>
          </mxGeometry>
        </mxCell>
        <mxCell id="u4X41kb7TN3iQtdw-ZZZ-1" value="User Type" style="swimlane;whiteSpace=wrap;html=1;" vertex="1" parent="1">
          <mxGeometry x="88" y="14" width="200" height="178" as="geometry" />
        </mxCell>
        <mxCell id="u4X41kb7TN3iQtdw-ZZZ-7" value="LogIN" style="rounded=0;whiteSpace=wrap;html=1;" vertex="1" parent="u4X41kb7TN3iQtdw-ZZZ-1">
          <mxGeometry x="8" y="77.5" width="184" height="45" as="geometry" />
        </mxCell>
        <mxCell id="u4X41kb7TN3iQtdw-ZZZ-10" value="Sign UP" style="rounded=0;whiteSpace=wrap;html=1;" vertex="1" parent="u4X41kb7TN3iQtdw-ZZZ-1">
          <mxGeometry x="8" y="29" width="184" height="45" as="geometry" />
        </mxCell>
        <mxCell id="u4X41kb7TN3iQtdw-ZZZ-14" value="Guest" style="rounded=0;whiteSpace=wrap;html=1;" vertex="1" parent="u4X41kb7TN3iQtdw-ZZZ-1">
          <mxGeometry x="8" y="126" width="184" height="45" as="geometry" />
        </mxCell>
        <mxCell id="u4X41kb7TN3iQtdw-ZZZ-47" style="edgeStyle=none;curved=1;rounded=0;orthogonalLoop=1;jettySize=auto;html=1;fontSize=12;startSize=8;endSize=8;" edge="1" parent="1" source="u4X41kb7TN3iQtdw-ZZZ-15">
          <mxGeometry relative="1" as="geometry">
            <mxPoint x="858.5384615384614" y="-48.46153846153845" as="targetPoint" />
          </mxGeometry>
        </mxCell>
        <mxCell id="u4X41kb7TN3iQtdw-ZZZ-15" value="SignUP" style="swimlane;whiteSpace=wrap;html=1;" vertex="1" parent="1">
          <mxGeometry x="480" y="-253" width="205" height="203" as="geometry" />
        </mxCell>
        <mxCell id="u4X41kb7TN3iQtdw-ZZZ-31" value="" style="shape=image;verticalLabelPosition=bottom;labelBackgroundColor=default;verticalAlign=top;aspect=fixed;imageAspect=0;image=https://images.storychief.com/account_6827/google-gmail-signup-page_a64d658a88b6aecff75bdf847608c0db_800.jpg;" vertex="1" parent="u4X41kb7TN3iQtdw-ZZZ-15">
          <mxGeometry x="26" y="51" width="138.33" height="91.82" as="geometry" />
        </mxCell>
        <mxCell id="u4X41kb7TN3iQtdw-ZZZ-43" value="&lt;div&gt;BUTTON TO AUTO FILL WIHT RANDOM -INFO&lt;/div&gt;" style="rounded=1;whiteSpace=wrap;html=1;" vertex="1" parent="u4X41kb7TN3iQtdw-ZZZ-15">
          <mxGeometry x="6.5" y="158" width="192" height="29" as="geometry" />
        </mxCell>
        <mxCell id="u4X41kb7TN3iQtdw-ZZZ-48" style="edgeStyle=none;curved=1;rounded=0;orthogonalLoop=1;jettySize=auto;html=1;fontSize=12;startSize=8;endSize=8;" edge="1" parent="1" source="u4X41kb7TN3iQtdw-ZZZ-19">
          <mxGeometry relative="1" as="geometry">
            <mxPoint x="863.1538461538462" y="-6.923076923076906" as="targetPoint" />
          </mxGeometry>
        </mxCell>
        <mxCell id="u4X41kb7TN3iQtdw-ZZZ-19" value="LogIN" style="swimlane;whiteSpace=wrap;html=1;" vertex="1" parent="1">
          <mxGeometry x="485" y="-26" width="200" height="178" as="geometry" />
        </mxCell>
        <mxCell id="u4X41kb7TN3iQtdw-ZZZ-33" value="" style="shape=image;verticalLabelPosition=bottom;labelBackgroundColor=default;verticalAlign=top;aspect=fixed;imageAspect=0;image=https://agentestudio.com/uploads/ckeditor/pictures/1072/content_02.png;" vertex="1" parent="u4X41kb7TN3iQtdw-ZZZ-19">
          <mxGeometry x="3.490000000000009" y="40" width="183.35" height="117.87" as="geometry" />
        </mxCell>
        <mxCell id="u4X41kb7TN3iQtdw-ZZZ-49" style="edgeStyle=none;curved=1;rounded=0;orthogonalLoop=1;jettySize=auto;html=1;fontSize=12;startSize=8;endSize=8;" edge="1" parent="1" source="u4X41kb7TN3iQtdw-ZZZ-23">
          <mxGeometry relative="1" as="geometry">
            <mxPoint x="865.4615384615383" y="62.30769230769238" as="targetPoint" />
          </mxGeometry>
        </mxCell>
        <mxCell id="u4X41kb7TN3iQtdw-ZZZ-23" value="&lt;div&gt;guest&lt;/div&gt;" style="swimlane;whiteSpace=wrap;html=1;" vertex="1" parent="1">
          <mxGeometry x="485" y="189" width="200" height="178" as="geometry" />
        </mxCell>
        <mxCell id="u4X41kb7TN3iQtdw-ZZZ-35" value="Generate a randome name " style="rounded=1;whiteSpace=wrap;html=1;" vertex="1" parent="u4X41kb7TN3iQtdw-ZZZ-23">
          <mxGeometry x="19" y="31" width="155" height="77.5" as="geometry" />
        </mxCell>
        <mxCell id="u4X41kb7TN3iQtdw-ZZZ-36" value="show welcome message and move ahead" style="rounded=1;whiteSpace=wrap;html=1;" vertex="1" parent="u4X41kb7TN3iQtdw-ZZZ-23">
          <mxGeometry x="24" y="108.5" width="150" height="37.5" as="geometry" />
        </mxCell>
        <mxCell id="u4X41kb7TN3iQtdw-ZZZ-27" style="edgeStyle=none;curved=1;rounded=0;orthogonalLoop=1;jettySize=auto;html=1;fontSize=12;startSize=8;endSize=8;" edge="1" parent="1" source="u4X41kb7TN3iQtdw-ZZZ-10" target="u4X41kb7TN3iQtdw-ZZZ-15">
          <mxGeometry relative="1" as="geometry">
            <Array as="points">
              <mxPoint x="301" y="72" />
            </Array>
          </mxGeometry>
        </mxCell>
        <mxCell id="u4X41kb7TN3iQtdw-ZZZ-29" style="edgeStyle=none;curved=1;rounded=0;orthogonalLoop=1;jettySize=auto;html=1;fontSize=12;startSize=8;endSize=8;" edge="1" parent="1" source="u4X41kb7TN3iQtdw-ZZZ-14" target="u4X41kb7TN3iQtdw-ZZZ-23">
          <mxGeometry relative="1" as="geometry">
            <Array as="points">
              <mxPoint x="380" y="147" />
            </Array>
          </mxGeometry>
        </mxCell>
        <mxCell id="u4X41kb7TN3iQtdw-ZZZ-30" value="Home/" style="text;html=1;align=center;verticalAlign=middle;resizable=0;points=[];autosize=1;strokeColor=none;fillColor=none;fontSize=16;" vertex="1" parent="1">
          <mxGeometry x="147.5" y="-16.5" width="65" height="31" as="geometry" />
        </mxCell>
        <mxCell id="u4X41kb7TN3iQtdw-ZZZ-37" value="tICK TAC TO " style="swimlane;whiteSpace=wrap;html=1;startSize=39;" vertex="1" parent="1">
          <mxGeometry x="860" y="-165" width="368.54" height="345" as="geometry" />
        </mxCell>
        <mxCell id="u4X41kb7TN3iQtdw-ZZZ-42" value="Create a room " style="rounded=1;whiteSpace=wrap;html=1;" vertex="1" parent="u4X41kb7TN3iQtdw-ZZZ-37">
          <mxGeometry x="22.77" y="159" width="323" height="81" as="geometry" />
        </mxCell>
        <mxCell id="u4X41kb7TN3iQtdw-ZZZ-53" value="Play with bot" style="rounded=1;whiteSpace=wrap;html=1;" vertex="1" parent="u4X41kb7TN3iQtdw-ZZZ-37">
          <mxGeometry x="31" y="258" width="316" height="60" as="geometry" />
        </mxCell>
        <mxCell id="u4X41kb7TN3iQtdw-ZZZ-119" value="number of rounds " style="rounded=1;whiteSpace=wrap;html=1;" vertex="1" parent="u4X41kb7TN3iQtdw-ZZZ-37">
          <mxGeometry x="31" y="65" width="120" height="60" as="geometry" />
        </mxCell>
        <mxCell id="u4X41kb7TN3iQtdw-ZZZ-54" value="&lt;div&gt;create room&lt;/div&gt;" style="swimlane;whiteSpace=wrap;html=1;startSize=39;" vertex="1" parent="1">
          <mxGeometry x="1736" y="-184" width="368.54" height="305" as="geometry" />
        </mxCell>
        <mxCell id="u4X41kb7TN3iQtdw-ZZZ-57" value="" style="whiteSpace=wrap;html=1;aspect=fixed;" vertex="1" parent="u4X41kb7TN3iQtdw-ZZZ-54">
          <mxGeometry x="13" y="50" width="185" height="185" as="geometry" />
        </mxCell>
        <mxCell id="u4X41kb7TN3iQtdw-ZZZ-59" value="" style="swimlane;startSize=0;" vertex="1" parent="u4X41kb7TN3iQtdw-ZZZ-54">
          <mxGeometry x="20" y="63" width="49" height="47" as="geometry" />
        </mxCell>
        <mxCell id="u4X41kb7TN3iQtdw-ZZZ-60" value="" style="swimlane;startSize=0;" vertex="1" parent="u4X41kb7TN3iQtdw-ZZZ-54">
          <mxGeometry x="79" y="63" width="49" height="47" as="geometry" />
        </mxCell>
        <mxCell id="u4X41kb7TN3iQtdw-ZZZ-78" value="" style="ellipse;whiteSpace=wrap;html=1;aspect=fixed;" vertex="1" parent="u4X41kb7TN3iQtdw-ZZZ-60">
          <mxGeometry x="4" y="3" width="41" height="41" as="geometry" />
        </mxCell>
        <mxCell id="u4X41kb7TN3iQtdw-ZZZ-76" value="" style="endArrow=none;html=1;rounded=0;fontSize=12;startSize=8;endSize=8;curved=1;entryX=0;entryY=0;entryDx=0;entryDy=0;exitX=1;exitY=1;exitDx=0;exitDy=0;" edge="1" parent="u4X41kb7TN3iQtdw-ZZZ-54" source="u4X41kb7TN3iQtdw-ZZZ-59" target="u4X41kb7TN3iQtdw-ZZZ-59">
          <mxGeometry width="50" height="50" relative="1" as="geometry">
            <mxPoint x="59.06" y="105.5" as="sourcePoint" />
            <mxPoint x="23.84899082568796" y="67.5" as="targetPoint" />
          </mxGeometry>
        </mxCell>
        <mxCell id="u4X41kb7TN3iQtdw-ZZZ-77" value="" style="endArrow=none;html=1;rounded=0;fontSize=12;startSize=8;endSize=8;curved=1;exitX=0;exitY=1;exitDx=0;exitDy=0;entryX=1;entryY=0;entryDx=0;entryDy=0;" edge="1" parent="u4X41kb7TN3iQtdw-ZZZ-54" source="u4X41kb7TN3iQtdw-ZZZ-59" target="u4X41kb7TN3iQtdw-ZZZ-59">
          <mxGeometry width="50" height="50" relative="1" as="geometry">
            <mxPoint x="69.21000000000004" y="105.5" as="sourcePoint" />
            <mxPoint x="33.998990825688" y="67.5" as="targetPoint" />
          </mxGeometry>
        </mxCell>
        <mxCell id="u4X41kb7TN3iQtdw-ZZZ-99" value="" style="endArrow=none;html=1;rounded=0;fontSize=12;startSize=8;endSize=8;curved=1;exitX=0;exitY=1;exitDx=0;exitDy=0;entryX=1;entryY=0;entryDx=0;entryDy=0;" edge="1" source="u4X41kb7TN3iQtdw-ZZZ-100" target="u4X41kb7TN3iQtdw-ZZZ-100" parent="u4X41kb7TN3iQtdw-ZZZ-54">
          <mxGeometry width="50" height="50" relative="1" as="geometry">
            <mxPoint x="69.21000000000004" y="158.5" as="sourcePoint" />
            <mxPoint x="33.998990825688" y="120.5" as="targetPoint" />
          </mxGeometry>
        </mxCell>
        <mxCell id="u4X41kb7TN3iQtdw-ZZZ-100" value="" style="swimlane;startSize=0;" vertex="1" parent="u4X41kb7TN3iQtdw-ZZZ-54">
          <mxGeometry x="20" y="116" width="49" height="47" as="geometry" />
        </mxCell>
        <mxCell id="u4X41kb7TN3iQtdw-ZZZ-101" value="" style="endArrow=none;html=1;rounded=0;fontSize=12;startSize=8;endSize=8;curved=1;entryX=0;entryY=0;entryDx=0;entryDy=0;exitX=1;exitY=1;exitDx=0;exitDy=0;" edge="1" source="u4X41kb7TN3iQtdw-ZZZ-100" target="u4X41kb7TN3iQtdw-ZZZ-100" parent="u4X41kb7TN3iQtdw-ZZZ-54">
          <mxGeometry width="50" height="50" relative="1" as="geometry">
            <mxPoint x="59.059999999999945" y="158.5" as="sourcePoint" />
            <mxPoint x="23.848990825687906" y="120.5" as="targetPoint" />
          </mxGeometry>
        </mxCell>
        <mxCell id="u4X41kb7TN3iQtdw-ZZZ-102" value="" style="swimlane;startSize=0;" vertex="1" parent="u4X41kb7TN3iQtdw-ZZZ-54">
          <mxGeometry x="79" y="116" width="49" height="47" as="geometry" />
        </mxCell>
        <mxCell id="u4X41kb7TN3iQtdw-ZZZ-103" value="" style="ellipse;whiteSpace=wrap;html=1;aspect=fixed;" vertex="1" parent="u4X41kb7TN3iQtdw-ZZZ-102">
          <mxGeometry x="4" y="3" width="41" height="41" as="geometry" />
        </mxCell>
        <mxCell id="u4X41kb7TN3iQtdw-ZZZ-110" value="" style="endArrow=none;html=1;rounded=0;fontSize=12;startSize=8;endSize=8;curved=1;entryX=0;entryY=0;entryDx=0;entryDy=0;exitX=1;exitY=1;exitDx=0;exitDy=0;" edge="1" source="u4X41kb7TN3iQtdw-ZZZ-112" target="u4X41kb7TN3iQtdw-ZZZ-112" parent="u4X41kb7TN3iQtdw-ZZZ-54">
          <mxGeometry width="50" height="50" relative="1" as="geometry">
            <mxPoint x="59.059999999999945" y="217.5" as="sourcePoint" />
            <mxPoint x="23.848990825687906" y="179.5" as="targetPoint" />
          </mxGeometry>
        </mxCell>
        <mxCell id="u4X41kb7TN3iQtdw-ZZZ-111" value="" style="endArrow=none;html=1;rounded=0;fontSize=12;startSize=8;endSize=8;curved=1;exitX=0;exitY=1;exitDx=0;exitDy=0;entryX=1;entryY=0;entryDx=0;entryDy=0;" edge="1" source="u4X41kb7TN3iQtdw-ZZZ-112" target="u4X41kb7TN3iQtdw-ZZZ-112" parent="u4X41kb7TN3iQtdw-ZZZ-54">
          <mxGeometry width="50" height="50" relative="1" as="geometry">
            <mxPoint x="69.21000000000004" y="217.5" as="sourcePoint" />
            <mxPoint x="33.998990825688" y="179.5" as="targetPoint" />
          </mxGeometry>
        </mxCell>
        <mxCell id="u4X41kb7TN3iQtdw-ZZZ-112" value="" style="swimlane;startSize=0;" vertex="1" parent="u4X41kb7TN3iQtdw-ZZZ-54">
          <mxGeometry x="20" y="175" width="49" height="47" as="geometry" />
        </mxCell>
        <mxCell id="u4X41kb7TN3iQtdw-ZZZ-113" value="" style="swimlane;startSize=0;" vertex="1" parent="u4X41kb7TN3iQtdw-ZZZ-54">
          <mxGeometry x="79" y="175" width="49" height="47" as="geometry" />
        </mxCell>
        <mxCell id="u4X41kb7TN3iQtdw-ZZZ-114" value="" style="ellipse;whiteSpace=wrap;html=1;aspect=fixed;" vertex="1" parent="u4X41kb7TN3iQtdw-ZZZ-113">
          <mxGeometry x="4" y="3" width="41" height="41" as="geometry" />
        </mxCell>
        <mxCell id="u4X41kb7TN3iQtdw-ZZZ-118" value="&lt;div&gt;is playing / your turn&lt;/div&gt;&lt;div&gt;with barr filling in timer&lt;/div&gt;" style="rounded=1;whiteSpace=wrap;html=1;" vertex="1" parent="u4X41kb7TN3iQtdw-ZZZ-54">
          <mxGeometry x="13" y="244" width="178" height="47" as="geometry" />
        </mxCell>
        <mxCell id="u4X41kb7TN3iQtdw-ZZZ-120" value="&lt;div&gt;SCORE BOARD&lt;br&gt;&lt;/div&gt;&lt;div&gt;round - num(1/4, 2/4,..)&lt;/div&gt;&lt;div&gt;player a wins(num)&lt;/div&gt;&lt;div&gt;player b wins(num)&lt;br&gt;&lt;/div&gt;" style="rounded=1;whiteSpace=wrap;html=1;" vertex="1" parent="u4X41kb7TN3iQtdw-ZZZ-54">
          <mxGeometry x="215" y="50" width="139" height="92" as="geometry" />
        </mxCell>
        <mxCell id="u4X41kb7TN3iQtdw-ZZZ-122" value="" style="whiteSpace=wrap;html=1;aspect=fixed;" vertex="1" parent="u4X41kb7TN3iQtdw-ZZZ-54">
          <mxGeometry x="218" y="153" width="132" height="132" as="geometry" />
        </mxCell>
        <mxCell id="u4X41kb7TN3iQtdw-ZZZ-123" value="" style="rounded=1;whiteSpace=wrap;html=1;" vertex="1" parent="u4X41kb7TN3iQtdw-ZZZ-54">
          <mxGeometry x="221" y="259" width="126" height="21" as="geometry" />
        </mxCell>
        <mxCell id="u4X41kb7TN3iQtdw-ZZZ-124" value="" style="triangle;whiteSpace=wrap;html=1;" vertex="1" parent="u4X41kb7TN3iQtdw-ZZZ-54">
          <mxGeometry x="226" y="264" width="7" height="11" as="geometry" />
        </mxCell>
        <mxCell id="u4X41kb7TN3iQtdw-ZZZ-125" value="caht box" style="rounded=1;whiteSpace=wrap;html=1;" vertex="1" parent="u4X41kb7TN3iQtdw-ZZZ-54">
          <mxGeometry x="239" y="262" width="100" height="13" as="geometry" />
        </mxCell>
        <mxCell id="u4X41kb7TN3iQtdw-ZZZ-126" value="" style="rounded=1;whiteSpace=wrap;html=1;" vertex="1" parent="u4X41kb7TN3iQtdw-ZZZ-54">
          <mxGeometry x="226" y="163" width="47" height="22" as="geometry" />
        </mxCell>
        <mxCell id="u4X41kb7TN3iQtdw-ZZZ-127" value="" style="rounded=1;whiteSpace=wrap;html=1;" vertex="1" parent="u4X41kb7TN3iQtdw-ZZZ-54">
          <mxGeometry x="226" y="225" width="47" height="22" as="geometry" />
        </mxCell>
        <mxCell id="u4X41kb7TN3iQtdw-ZZZ-128" value="" style="rounded=1;whiteSpace=wrap;html=1;" vertex="1" parent="u4X41kb7TN3iQtdw-ZZZ-54">
          <mxGeometry x="292" y="195" width="47" height="22" as="geometry" />
        </mxCell>
        <mxCell id="u4X41kb7TN3iQtdw-ZZZ-130" value="un ending tic tac to &lt;br&gt;create a live tic tac to web app&lt;br&gt;2 players log in createa account &lt;br&gt;and play tic tac to with each other and can alos chat &lt;br&gt;send emogi &lt;br&gt;and add special feature where the losing player gets cheating option**&lt;br&gt;cheatin as in when the player is losing he gets the undo &lt;br&gt;button.&lt;br&gt;&lt;br&gt;&amp;gt; user login &amp;amp; sin-up &amp;amp; OR guest user FAST id &lt;br&gt;&amp;nbsp;&amp;nbsp;&amp;nbsp; &amp;gt; can create a ID with real info &lt;br&gt;&amp;nbsp;&amp;nbsp;&amp;nbsp; &amp;gt; can press a buttone to auto fill details and sin up wiht random info (but set a pass word )&lt;br&gt;&amp;nbsp;&amp;nbsp;&amp;nbsp; &amp;gt; can obviously login with the id password &lt;br&gt;&amp;nbsp;&amp;nbsp;&amp;nbsp; &amp;gt; can also use guist id that is again randon but no pass word&lt;br&gt;&lt;br&gt;&amp;gt; multy plyer online &lt;br&gt;&amp;gt; can play with bot&lt;br&gt;&lt;br&gt;&amp;gt; game features&lt;br&gt;&amp;nbsp;&amp;nbsp;&amp;nbsp; &amp;gt; decide number of rounds to play to decide the4 winner(best of??) &lt;br&gt;&amp;nbsp;&amp;nbsp;&amp;nbsp; &amp;gt; one move per turn&lt;br&gt;&amp;nbsp;&amp;nbsp;&amp;nbsp; &amp;gt; timer (if timer ends it hits random entry and no undo)&lt;br&gt;&amp;nbsp;&amp;nbsp;&amp;nbsp; &amp;gt; reset button approval from both ends&lt;br&gt;&amp;nbsp;&amp;nbsp;&amp;nbsp; &amp;gt; undo button approval from both ends&lt;br&gt;&amp;nbsp;&amp;nbsp;&amp;nbsp; &amp;gt; first turn on random &lt;br&gt;&amp;nbsp;&amp;nbsp;&amp;nbsp; &amp;gt; chat&lt;br&gt;&amp;nbsp;&amp;nbsp;&amp;nbsp; &amp;gt; emogi&lt;br&gt;&amp;nbsp;&amp;nbsp;&amp;nbsp; &amp;gt; score board&lt;br&gt;&lt;br&gt;&amp;gt; special features&lt;br&gt;&amp;nbsp;&amp;nbsp;&amp;nbsp; &amp;gt; can add a feature where the losing player gets the undo button once per round&lt;br&gt;&amp;nbsp;&amp;nbsp;&amp;nbsp; &amp;gt; add cool game start animation of X and O roling in all 9 blocks randomly like a slot matchin&lt;br&gt;&amp;nbsp;&amp;nbsp;&amp;nbsp; &amp;gt; opposit player always colour code in red as enemy and self as blue&lt;br&gt;&amp;nbsp;&amp;nbsp;&amp;nbsp; " style="text;html=1;whiteSpace=wrap;overflow=hidden;rounded=0;" vertex="1" parent="1">
          <mxGeometry x="28" y="-1114" width="694" height="530" as="geometry" />
        </mxCell>
      </root>
    </mxGraphModel>
  </diagram>
</mxfile>
